# xmcd
#
# Track frame offsets: 
#        150
#        22167
#        38245
#        63074
#        80338
#        101463
#        115419
#        135056
#        144546
#        161563
#        181835
#        200430
#        212273
#        230269
#        253314
#        274985
#
# Disc length: 3877 seconds
#
# Revision: 0
# Processed by: cddbd v1.5.2PL0 Copyright (c) Steve Scherf et al.
# Submitted via: ExactAudioCopy v0.95a5
#
DISCID=d60f2310
DTITLE=Bended Band - From The Bottom
DYEAR=2008
DGENRE=Russian Blues
TTITLE0=Baby Lee
TTITLE1=Goin' To New York
TTITLE2=sweet Home Chicago
TTITLE3=Everyday I Have The Blues
TTITLE4=Be-Bop-A-Lula
TTITLE5=Good Morning Little School Girl
TTITLE6=Rollin' Stones
TTITLE7=Built For Comfort
TTITLE8=Pride And Joy
TTITLE9=From The Bottom
TTITLE10=Spoonfull
TTITLE11=My Baby
TTITLE12=Sittin' On The Top Of The World
TTITLE13=Before You Accuse Me
TTITLE14=Baby Please Don't Go
TTITLE15=I Love The Life I Live (I Live The Life I Love)
EXTD=
EXTT0=
EXTT1=
EXTT2=
EXTT3=
EXTT4=
EXTT5=
EXTT6=
EXTT7=
EXTT8=
EXTT9=
EXTT10=
EXTT11=
EXTT12=
EXTT13=
EXTT14=
EXTT15=
PLAYORDER=
